<svg width="100" height="100" viewBox="0 0 100 100" fill="none" xmlns="http://www.w3.org/2000/svg">
<path fill-rule="evenodd" clip-rule="evenodd" d="M0 48.5C0 20.632 21.8336 0 50 0C78.1664 0 100 20.6316 100 48.4996C100 76.3676 78.1664 96.9996 50 96.9996C44.9406 96.9996 40.0871 96.3316 35.5266 95.0777C34.6404 94.8335 33.697 94.9026 32.8559 95.2734L22.9316 99.6551C20.3355 100.801 17.4055 98.9551 17.3184 96.1183L17.0461 87.2238C17.0125 86.1281 16.5195 85.1039 15.7031 84.373C5.97383 75.6726 0 63.0769 0 48.5ZM56.9053 45.4545H63.7235C64.3263 45.4545 64.9043 45.2151 65.3306 44.7889C65.7568 44.3627 65.9962 43.7846 65.9962 43.1818C65.9962 42.5791 65.7568 42.001 65.3306 41.5748C64.9043 41.1485 64.3263 40.9091 63.7235 40.9091H56.9053C56.3025 40.9091 55.7245 41.1485 55.2982 41.5748C54.872 42.001 54.6326 42.5791 54.6326 43.1818C54.6326 43.7846 54.872 44.3627 55.2982 44.7889C55.7245 45.2151 56.3025 45.4545 56.9053 45.4545ZM40.9962 40.9091H43.2689C43.8717 40.9091 44.4498 41.1485 44.876 41.5748C45.3022 42.001 45.5417 42.5791 45.5417 43.1818C45.5417 43.7846 45.3022 44.3627 44.876 44.7889C44.4498 45.2151 43.8717 45.4545 43.2689 45.4545H40.9962V47.7273C40.9962 48.33 40.7568 48.9081 40.3306 49.3343C39.9043 49.7606 39.3263 50 38.7235 50C38.1207 50 37.5426 49.7606 37.1164 49.3343C36.6902 48.9081 36.4508 48.33 36.4508 47.7273V45.4545H34.178C33.5753 45.4545 32.9972 45.2151 32.571 44.7889C32.1448 44.3627 31.9053 43.7846 31.9053 43.1818C31.9053 42.5791 32.1448 42.001 32.571 41.5748C32.9972 41.1485 33.5753 40.9091 34.178 40.9091H36.4508V38.6364C36.4508 38.0336 36.6902 37.4555 37.1164 37.0293C37.5426 36.6031 38.1207 36.3636 38.7235 36.3636C39.3263 36.3636 39.9043 36.6031 40.3306 37.0293C40.7568 37.4555 40.9962 38.0336 40.9962 38.6364V40.9091ZM79.062 73.6297C80.3552 72.8831 81.4692 71.8624 82.3258 70.6392C83.0965 69.539 83.6413 68.2967 83.9286 66.9845C84.2158 65.6722 84.2397 64.3159 83.9991 62.9943C84.0004 62.9811 84.0004 62.9678 83.9991 62.9545L79.3485 39.0426V38.9915C78.6295 35.0684 76.5594 31.521 73.4976 28.9651C70.4358 26.4093 66.5755 25.0064 62.5871 25H37.5559C33.5554 25.0011 29.6833 26.4121 26.62 28.985C23.5566 31.5579 21.498 35.128 20.8059 39.0682L16.1553 62.9574C16.1539 62.9706 16.1539 62.9839 16.1553 62.9972C15.8961 64.4676 15.962 65.9769 16.3483 67.4191C16.7347 68.8613 17.4321 70.2015 18.3916 71.3454C19.3512 72.4893 20.5495 73.4093 21.9026 74.0406C23.2556 74.672 24.7304 74.9995 26.2235 75C28.9357 74.9981 31.5366 73.9214 33.4564 72.0057L33.5559 71.9006L44.8258 59.0909H55.3371L66.6184 71.9006C66.6496 71.9375 66.6837 71.9716 66.7178 72.0057C67.7739 73.0614 69.0483 73.873 70.4515 74.3836C71.8548 74.8941 73.3528 75.0912 74.8403 74.961C76.3279 74.8307 77.7689 74.3764 79.062 73.6297ZM71.426 50.8843C69.0818 53.2285 65.9023 54.5455 62.5871 54.5455H43.8144C43.4919 54.5455 43.1731 54.6142 42.8793 54.7469C42.5854 54.8797 42.3231 55.0734 42.1099 55.3153L30.2008 68.8352C29.342 69.6764 28.2386 70.2235 27.0492 70.3979C25.8599 70.5723 24.6459 70.365 23.5818 69.8058C22.5177 69.2466 21.6584 68.3643 21.1274 67.2859C20.5964 66.2074 20.4212 64.9883 20.6269 63.804L25.2803 39.9148V39.8778C25.7837 36.9865 27.2906 34.3654 29.5359 32.4755C31.7812 30.5856 34.6211 29.5481 37.5559 29.5455H62.5871C65.9023 29.5455 69.0818 30.8624 71.426 33.2066C73.7702 35.5508 75.0871 38.7302 75.0871 42.0455C75.0871 45.3607 73.7702 48.5401 71.426 50.8843ZM77.0644 51.0199L79.5474 63.804H79.5445C79.8013 65.2857 79.4601 66.8088 78.5958 68.0395C77.7315 69.2701 76.4146 70.1079 74.9337 70.3693C74.0448 70.5244 73.1317 70.4665 72.2694 70.2003C71.4072 69.9341 70.6204 69.4673 69.9735 68.8381L61.3939 59.0909H62.5871C65.4876 59.0885 68.3395 58.3459 70.8728 56.9336C73.4062 55.5212 75.5373 53.4858 77.0644 51.0199Z" fill="#BB2D3B"/>
</svg>
